<?xml version="1.0" encoding="UTF-8" standalone="no"?>
<!DOCTYPE svg PUBLIC "-//W3C//DTD SVG 1.1//EN" "http://www.w3.org/Graphics/SVG/1.1/DTD/svg11.dtd">
<svg version="1.1" xmlns="http://www.w3.org/2000/svg" xmlns:xlink="http://www.w3.org/1999/xlink" preserveAspectRatio="xMidYMid meet" viewBox="111.92194144838209 73.76348228043142 386.72058551617874 520.6479198767336" width="382.22" height="517.05"><defs><path d="M491.31 201L365.58 75.26L491.31 75.26L491.31 201Z" id="g6Pg3Mv5E"></path><path d="M365.58 75.26L491.31 201L365.58 201L365.58 75.26Z" id="b7U8OlbUpz"></path><path d="M369.91 233.85L495.64 359.58L369.91 359.58L369.91 233.85Z" id="eiWZqyv9Q"></path><path d="M113.69 233.85L239.42 359.58L113.69 359.58L113.69 233.85Z" id="b2fgJRzJZ9"></path><path d="M113.42 75.26L239.42 75.26L239.42 201.26L113.42 201.26L113.42 75.26Z" id="e2CpMUwbxl"></path><path d="M146.05 531.77L146.05 471.46L146.02 471.46L146.02 410.82L206.2 471L206.82 471L206.82 591.41L147.18 531.77L146.05 531.77Z" id="cgXchxLPB"></path><path d="M458.34 531.52L398.05 471.23L458.34 471.23L458.34 531.52Z" id="f2pUVc1QUP"></path><path d="M398.05 471.23L458.34 531.52L398.05 531.52L398.05 471.23Z" id="a141oOOezJ"></path><path d="M398.05 410.82L458.34 471.11L398.05 471.11L398.05 410.82Z" id="a7fI6p072"></path><path d="M458.85 592.31L398.55 532.02L458.85 532.02L458.85 592.31Z" id="aH19OU9be"></path></defs><g><g><g><use xlink:href="#g6Pg3Mv5E" opacity="1" fill="#ff9d70" fill-opacity="1"></use><g><use xlink:href="#g6Pg3Mv5E" opacity="1" fill-opacity="0" stroke="#b84d1a" stroke-width="3" stroke-opacity="1"></use></g></g><g><use xlink:href="#b7U8OlbUpz" opacity="1" fill="#ff9d70" fill-opacity="1"></use><g><use xlink:href="#b7U8OlbUpz" opacity="1" fill-opacity="0" stroke="#b84d1a" stroke-width="3" stroke-opacity="1"></use></g></g></g><g><use xlink:href="#eiWZqyv9Q" opacity="1" fill="#ff9d70" fill-opacity="1"></use><g><use xlink:href="#eiWZqyv9Q" opacity="1" fill-opacity="0" stroke="#b84d1a" stroke-width="3" stroke-opacity="1"></use></g></g><g><use xlink:href="#b2fgJRzJZ9" opacity="1" fill="#ff9d70" fill-opacity="1"></use><g><use xlink:href="#b2fgJRzJZ9" opacity="1" fill-opacity="0" stroke="#b84d1a" stroke-width="3" stroke-opacity="1"></use></g></g><g><use xlink:href="#e2CpMUwbxl" opacity="1" fill="#ff9d70" fill-opacity="1"></use><g><use xlink:href="#e2CpMUwbxl" opacity="1" fill-opacity="0" stroke="#b84d1a" stroke-width="3" stroke-opacity="1"></use></g></g><g><use xlink:href="#cgXchxLPB" opacity="1" fill="#ff9d70" fill-opacity="1"></use><g><use xlink:href="#cgXchxLPB" opacity="1" fill-opacity="0" stroke="#b84d1a" stroke-width="3" stroke-opacity="1"></use></g></g><g><g><g><g><use xlink:href="#f2pUVc1QUP" opacity="1" fill="#ff9d70" fill-opacity="1"></use><g><use xlink:href="#f2pUVc1QUP" opacity="1" fill-opacity="0" stroke="#b84d1a" stroke-width="3" stroke-opacity="1"></use></g></g><g><use xlink:href="#a141oOOezJ" opacity="1" fill="#ff9d70" fill-opacity="1"></use><g><use xlink:href="#a141oOOezJ" opacity="1" fill-opacity="0" stroke="#b84d1a" stroke-width="3" stroke-opacity="1"></use></g></g></g><g><use xlink:href="#a7fI6p072" opacity="1" fill="#ff9d70" fill-opacity="1"></use><g><use xlink:href="#a7fI6p072" opacity="1" fill-opacity="0" stroke="#b84d1a" stroke-width="3" stroke-opacity="1"></use></g></g></g><g><use xlink:href="#aH19OU9be" opacity="1" fill="#ff9d70" fill-opacity="1"></use><g><use xlink:href="#aH19OU9be" opacity="1" fill-opacity="0" stroke="#b84d1a" stroke-width="3" stroke-opacity="1"></use></g></g></g></g></svg>